<svg xmlns="http://www.w3.org/2000/svg" style="display:none">
  <symbol id="icon-settings" viewBox="0 0 24 24">
    <path d="M12 15.5a3.5 3.5 0 1 0 0-7 3.5 3.5 0 0 0 0 7Z" fill="none" stroke="currentColor" stroke-width="1.8" stroke-linecap="round" stroke-linejoin="round"/>
    <path d="M19.4 15a1.7 1.7 0 0 0 .34 1.88l.06.06a2.05 2.05 0 0 1-2.9 2.9l-.06-.06A1.7 1.7 0 0 0 15 19.4a1.7 1.7 0 0 0-1 .92l-.03.08a2.05 2.05 0 0 1-3.88 0l-.03-.08a1.7 1.7 0 0 0-1-.92 1.7 1.7 0 0 0-1.88.34l-.06.06a2.05 2.05 0 0 1-2.9-2.9l.06-.06A1.7 1.7 0 0 0 4.6 15a1.7 1.7 0 0 0-.92-1l-.08-.03a2.05 2.05 0 0 1 0-3.88l.08-.03a1.7 1.7 0 0 0 .92-1 1.7 1.7 0 0 0-.34-1.88l-.06-.06a2.05 2.05 0 0 1 2.9-2.9l.06.06A1.7 1.7 0 0 0 9 4.6a1.7 1.7 0 0 0 1-.92l.03-.08a2.05 2.05 0 0 1 3.88 0l.03.08a1.7 1.7 0 0 0 1 .92 1.7 1.7 0 0 0 1.88-.34l.06-.06a2.05 2.05 0 0 1 2.9 2.9l-.06.06A1.7 1.7 0 0 0 19.4 9c.17.39.5.72.92 1l.08.03a2.05 2.05 0 0 1 0 3.88l-.08.03a1.7 1.7 0 0 0-.92 1Z" fill="none" stroke="currentColor" stroke-width="1.8" stroke-linecap="round" stroke-linejoin="round"/>
  </symbol>
  <symbol id="icon-new" viewBox="0 0 24 24">
    <path d="M12 5v14M5 12h14" fill="none" stroke="currentColor" stroke-width="2" stroke-linecap="round"/>
  </symbol>
  <symbol id="icon-edit" viewBox="0 0 24 24">
    <path d="M4 20h4.5L19 9.5 14.5 5 4 15.5V20Z" fill="none" stroke="currentColor" stroke-width="1.8" stroke-linejoin="round"/>
    <path d="m13.5 6 4.5 4.5" fill="none" stroke="currentColor" stroke-width="1.8" stroke-linecap="round"/>
  </symbol>
  <symbol id="icon-delete" viewBox="0 0 24 24">
    <path d="M5 7h14M10 11v6M14 11v6M9 7V5h6v2M7 7l1 13h8l1-13" fill="none" stroke="currentColor" stroke-width="1.8" stroke-linecap="round" stroke-linejoin="round"/>
  </symbol>
  <symbol id="icon-duplicate" viewBox="0 0 24 24">
    <path d="M8 8h10v10H8V8Z" fill="none" stroke="currentColor" stroke-width="1.8" stroke-linejoin="round"/>
    <path d="M6 16H4V4h12v2" fill="none" stroke="currentColor" stroke-width="1.8" stroke-linecap="round" stroke-linejoin="round"/>
  </symbol>
  <symbol id="icon-close" viewBox="0 0 24 24">
    <path d="M6 6l12 12M18 6 6 18" fill="none" stroke="currentColor" stroke-width="2" stroke-linecap="round"/>
  </symbol>
  <symbol id="icon-save" viewBox="0 0 24 24">
    <path d="M5 4h12l2 2v16H5V4Z" fill="none" stroke="currentColor" stroke-width="1.8" stroke-linejoin="round"/>
    <path d="M8 4v6h9M8 18h8" fill="none" stroke="currentColor" stroke-width="1.8" stroke-linecap="round" stroke-linejoin="round"/>
  </symbol>
  <symbol id="icon-download" viewBox="0 0 24 24">
    <path d="M12 4v11M7 10l5 5 5-5M5 20h14" fill="none" stroke="currentColor" stroke-width="1.9" stroke-linecap="round" stroke-linejoin="round"/>
  </symbol>
  <symbol id="icon-file" viewBox="0 0 24 24">
    <path d="M7 3h8l5 5v13H7V3Z" fill="none" stroke="currentColor" stroke-width="1.8" stroke-linejoin="round"/>
    <path d="M15 3v6h6M10 13h8M10 17h6" fill="none" stroke="currentColor" stroke-width="1.8" stroke-linecap="round" stroke-linejoin="round"/>
  </symbol>
</svg>
